<svg width="15" height="8" viewBox="0 0 15 8" fill="none" xmlns="http://www.w3.org/2000/svg">
<path d="M3.85 7.668C5.446 7.668 6.496 6.898 6.86 5.47H5.936C5.684 6.366 4.97 6.842 3.864 6.842C2.408 6.842 1.54 5.89 1.47 4.238H6.86V3.762C6.86 1.844 5.614 0.542 3.78 0.542C1.848 0.542 0.532 1.998 0.532 4.112C0.532 6.24 1.862 7.668 3.85 7.668ZM3.78 1.368C5.054 1.368 5.894 2.236 5.894 3.538H1.498C1.666 2.208 2.506 1.368 3.78 1.368ZM9.37048 7.5V3.958C9.37048 2.432 10.1545 1.424 11.5405 1.424C12.6605 1.424 13.3745 1.984 13.3745 3.566V7.5H14.3405V3.356C14.3405 1.648 13.5705 0.542 11.7085 0.542C10.7285 0.542 9.83248 1.032 9.38448 1.9L9.24448 0.724H8.40448V7.5H9.37048Z" fill="#101010"/>
</svg>
