<svg width="63" height="34" viewBox="0 0 63 34" fill="none" xmlns="http://www.w3.org/2000/svg">
<path d="M0.92 33V0.799998H8.28V4.02H4.14V13.22H7.82V16.44H4.14V33H0.92ZM19.2938 33.23C17.7604 33.4447 16.6258 33.184 15.8898 32.448C15.1844 31.712 14.8318 30.332 14.8318 28.308V18.786C14.8318 18.5407 14.7704 18.326 14.6478 18.142C14.5251 17.9273 14.3258 17.82 14.0498 17.82H12.8998V33H9.67977V0.799998H13.5438C15.0158 0.799998 16.1351 1.18333 16.9018 1.95C17.6684 2.686 18.0518 3.974 18.0518 5.814V13.358C18.0518 14.8607 17.6378 15.796 16.8098 16.164V16.256C17.2391 16.44 17.5458 16.8233 17.7298 17.406C17.9444 17.9887 18.0518 18.648 18.0518 19.384V28.216C18.0518 28.9213 18.0978 29.3967 18.1898 29.642C18.2818 29.8873 18.5578 30.01 19.0178 30.01H19.2938V33.23ZM14.8318 13.128V5.814C14.8318 5.10867 14.7244 4.63333 14.5098 4.388C14.3258 4.14266 14.0038 4.02 13.5438 4.02H12.8998V14.6H13.5438C13.9424 14.6 14.2491 14.508 14.4638 14.324C14.7091 14.14 14.8318 13.7413 14.8318 13.128ZM20.1915 0.799998H27.5515V4.02H23.4115V13.22H27.0915V16.44H23.4115V29.78H27.5515V33H20.1915V0.799998ZM28.9513 33V0.799998H32.1713V33H28.9513ZM37.2474 28.446C37.2474 29.1513 37.2934 29.6267 37.3854 29.872C37.4774 30.1173 37.7534 30.24 38.2134 30.24C38.6734 30.24 38.9494 30.1173 39.0414 29.872C39.1334 29.6267 39.1794 29.1513 39.1794 28.446V15.98H38.2134V13.22H42.3994V28.446C42.3994 30.286 42.0621 31.5893 41.3874 32.356C40.7434 33.092 39.6854 33.46 38.2134 33.46C36.7414 33.46 35.6681 33.0767 34.9934 32.31C34.3494 31.5433 34.0274 30.24 34.0274 28.4V5.354C34.0274 3.514 34.3494 2.226 34.9934 1.49C35.6681 0.723331 36.7414 0.339998 38.2134 0.339998C39.6854 0.339998 40.7434 0.723331 41.3874 1.49C42.0621 2.226 42.3994 3.514 42.3994 5.354V8.114H39.1794V5.354C39.1794 4.64867 39.1334 4.17333 39.0414 3.928C38.9494 3.68266 38.6734 3.56 38.2134 3.56C37.7534 3.56 37.4774 3.68266 37.3854 3.928C37.2934 4.17333 37.2474 4.64867 37.2474 5.354V28.446ZM47.4447 33H44.2247V0.799998H47.4447V13.22H49.3767V0.799998H52.5967V33H49.3767V16.44H47.4447V33ZM62.334 0.799998V4.02H59.758V33H56.538V4.02H53.962V0.799998H62.334Z" fill="#101010"/>
</svg>
