<svg width="1214" height="128" viewBox="0 0 1214 128" fill="none" xmlns="http://www.w3.org/2000/svg">
<path d="M0.52 125V1.79999H12.84V125H0.52ZM55.8459 125H41.7659L32.6139 47.56H32.0859V125H19.9419V1.79999H34.0219L43.3499 75.72H43.7019V1.79999H55.8459V125ZM93.1826 1.79999V14.12H83.3266V125H71.0066V14.12H61.1506V1.79999H93.1826ZM98.4888 1.79999H126.649V14.12H110.809V49.32H124.889V61.64H110.809V112.68H126.649V125H98.4888V1.79999ZM168.788 125.88C162.922 126.701 158.58 125.704 155.764 122.888C153.066 120.072 151.716 114.792 151.716 107.048V70.616C151.716 69.6773 151.482 68.856 151.012 68.152C150.543 67.3307 149.78 66.92 148.724 66.92H144.324V125H132.004V1.79999H146.788C152.42 1.79999 156.703 3.26666 159.636 6.2C162.57 9.016 164.036 13.944 164.036 20.984V49.848C164.036 55.5973 162.452 59.176 159.284 60.584V60.936C160.927 61.64 162.1 63.1067 162.804 65.336C163.626 67.5653 164.036 70.088 164.036 72.904V106.696C164.036 109.395 164.212 111.213 164.564 112.152C164.916 113.091 165.972 113.56 167.732 113.56H168.788V125.88ZM151.716 48.968V20.984C151.716 18.2853 151.306 16.4667 150.484 15.528C149.78 14.5893 148.548 14.12 146.788 14.12H144.324V54.6H146.788C148.314 54.6 149.487 54.248 150.308 53.544C151.247 52.84 151.716 51.3147 151.716 48.968ZM208.127 125H194.047L184.895 47.56H184.367V125H172.223V1.79999H186.303L195.631 75.72H195.983V1.79999H208.127V125ZM213.432 125L219.768 1.79999H238.952L245.464 125H233.32L232.44 98.6H226.456L225.576 125H213.432ZM226.808 88.04H232.088L229.624 14.12H229.272L226.808 88.04ZM281.042 1.79999V14.12H271.186V125H258.866V14.12H249.01V1.79999H281.042ZM286.348 125V1.79999H298.668V125H286.348ZM337.802 107.576C337.802 114.616 336.511 119.603 333.93 122.536C331.466 125.352 327.418 126.76 321.786 126.76C316.154 126.76 312.047 125.293 309.466 122.36C307.002 119.427 305.77 114.44 305.77 107.4V19.224C305.77 12.184 307.002 7.25599 309.466 4.43999C312.047 1.50666 316.154 0.0399933 321.786 0.0399933C327.418 0.0399933 331.466 1.50666 333.93 4.43999C336.511 7.25599 337.802 12.184 337.802 19.224V107.576ZM325.482 19.224C325.482 16.5253 325.306 14.7067 324.954 13.768C324.602 12.8293 323.546 12.36 321.786 12.36C320.026 12.36 318.97 12.8293 318.618 13.768C318.266 14.7067 318.09 16.5253 318.09 19.224V107.576C318.09 110.275 318.266 112.093 318.618 113.032C318.97 113.971 320.026 114.44 321.786 114.44C323.546 114.44 324.602 113.971 324.954 113.032C325.306 112.093 325.482 110.275 325.482 107.576V19.224ZM380.69 125H366.61L357.458 47.56H356.93V125H344.786V1.79999H358.866L368.194 75.72H368.546V1.79999H380.69V125ZM385.994 125L392.33 1.79999H411.514L418.026 125H405.882L405.002 98.6H399.018L398.138 125H385.994ZM399.37 88.04H404.65L402.186 14.12H401.834L399.37 88.04ZM423.333 1.79999H435.653V112.68H451.493V125H423.333V1.79999ZM497.356 107.576C497.356 110.275 497.532 112.093 497.884 113.032C498.236 113.971 499.292 114.44 501.052 114.44C502.812 114.44 503.868 113.971 504.22 113.032C504.572 112.093 504.748 110.275 504.748 107.576V88.04H517.068V107.576C517.068 114.616 515.777 119.603 513.196 122.536C510.732 125.352 506.684 126.76 501.052 126.76C495.42 126.76 491.313 125.293 488.732 122.36C486.268 119.427 485.036 114.44 485.036 107.4V19.224C485.036 12.184 486.268 7.25599 488.732 4.43999C491.313 1.50666 495.42 0.0399933 501.052 0.0399933C506.684 0.0399933 510.732 1.50666 513.196 4.43999C515.777 7.25599 517.068 12.184 517.068 19.224V38.76H504.748V19.224C504.748 16.5253 504.572 14.7067 504.22 13.768C503.868 12.8293 502.812 12.36 501.052 12.36C499.292 12.36 498.236 12.8293 497.884 13.768C497.532 14.7067 497.356 16.5253 497.356 19.224V107.576ZM522.291 125L528.627 1.79999H547.811L554.323 125H542.179L541.299 98.6H535.315L534.435 125H522.291ZM535.667 88.04H540.947L538.483 14.12H538.131L535.667 88.04ZM596.413 125.88C590.547 126.701 586.205 125.704 583.389 122.888C580.691 120.072 579.341 114.792 579.341 107.048V70.616C579.341 69.6773 579.107 68.856 578.637 68.152C578.168 67.3307 577.405 66.92 576.349 66.92H571.949V125H559.629V1.79999H574.413C580.045 1.79999 584.328 3.26666 587.261 6.2C590.195 9.016 591.661 13.944 591.661 20.984V49.848C591.661 55.5973 590.077 59.176 586.909 60.584V60.936C588.552 61.64 589.725 63.1067 590.429 65.336C591.251 67.5653 591.661 70.088 591.661 72.904V106.696C591.661 109.395 591.837 111.213 592.189 112.152C592.541 113.091 593.597 113.56 595.357 113.56H596.413V125.88ZM579.341 48.968V20.984C579.341 18.2853 578.931 16.4667 578.109 15.528C577.405 14.5893 576.173 14.12 574.413 14.12H571.949V54.6H574.413C575.939 54.6 577.112 54.248 577.933 53.544C578.872 52.84 579.341 51.3147 579.341 48.968ZM612.168 107.576C612.168 110.275 612.344 112.093 612.696 113.032C613.048 113.971 614.104 114.44 615.864 114.44C617.624 114.44 618.68 113.971 619.032 113.032C619.384 112.093 619.56 110.275 619.56 107.576V59.88H615.864V49.32H631.88V107.576C631.88 114.616 630.589 119.603 628.008 122.536C625.544 125.352 621.496 126.76 615.864 126.76C610.232 126.76 606.125 125.293 603.544 122.36C601.08 119.427 599.848 114.44 599.848 107.4V19.224C599.848 12.184 601.08 7.25599 603.544 4.43999C606.125 1.50666 610.232 0.0399933 615.864 0.0399933C621.496 0.0399933 625.544 1.50666 628.008 4.43999C630.589 7.25599 631.88 12.184 631.88 19.224V29.784H619.56V19.224C619.56 16.5253 619.384 14.7067 619.032 13.768C618.68 12.8293 617.624 12.36 615.864 12.36C614.104 12.36 613.048 12.8293 612.696 13.768C612.344 14.7067 612.168 16.5253 612.168 19.224V107.576ZM670.896 107.576C670.896 114.616 669.605 119.603 667.024 122.536C664.56 125.352 660.512 126.76 654.88 126.76C649.248 126.76 645.141 125.293 642.56 122.36C640.096 119.427 638.864 114.44 638.864 107.4V19.224C638.864 12.184 640.096 7.25599 642.56 4.43999C645.141 1.50666 649.248 0.0399933 654.88 0.0399933C660.512 0.0399933 664.56 1.50666 667.024 4.43999C669.605 7.25599 670.896 12.184 670.896 19.224V107.576ZM658.576 19.224C658.576 16.5253 658.4 14.7067 658.048 13.768C657.696 12.8293 656.64 12.36 654.88 12.36C653.12 12.36 652.064 12.8293 651.712 13.768C651.36 14.7067 651.184 16.5253 651.184 19.224V107.576C651.184 110.275 651.36 112.093 651.712 113.032C652.064 113.971 653.12 114.44 654.88 114.44C656.64 114.44 657.696 113.971 658.048 113.032C658.4 112.093 658.576 110.275 658.576 107.576V19.224ZM734.62 1.79999V14.12H724.764V125H712.444V14.12H702.588V1.79999H734.62ZM776.71 125.88C770.844 126.701 766.502 125.704 763.686 122.888C760.988 120.072 759.638 114.792 759.638 107.048V70.616C759.638 69.6773 759.404 68.856 758.934 68.152C758.465 67.3307 757.702 66.92 756.646 66.92H752.246V125H739.926V1.79999H754.71C760.342 1.79999 764.625 3.26666 767.558 6.2C770.492 9.016 771.958 13.944 771.958 20.984V49.848C771.958 55.5973 770.374 59.176 767.206 60.584V60.936C768.849 61.64 770.022 63.1067 770.726 65.336C771.548 67.5653 771.958 70.088 771.958 72.904V106.696C771.958 109.395 772.134 111.213 772.486 112.152C772.838 113.091 773.894 113.56 775.654 113.56H776.71V125.88ZM759.638 48.968V20.984C759.638 18.2853 759.228 16.4667 758.406 15.528C757.702 14.5893 756.47 14.12 754.71 14.12H752.246V54.6H754.71C756.236 54.6 757.409 54.248 758.23 53.544C759.169 52.84 759.638 51.3147 759.638 48.968ZM778.385 125L784.721 1.79999H803.905L810.417 125H798.273L797.393 98.6H791.409L790.529 125H778.385ZM791.761 88.04H797.041L794.577 14.12H794.225L791.761 88.04ZM851.627 125H837.547L828.395 47.56H827.867V125H815.723V1.79999H829.803L839.131 75.72H839.483V1.79999H851.627V125ZM869.252 105.816C869.252 108.515 869.428 110.333 869.78 111.272C870.132 112.211 871.188 112.68 872.948 112.68C874.708 112.68 875.764 112.211 876.116 111.272C876.468 110.333 876.644 108.515 876.644 105.816V81.352C876.644 77.48 876.116 74.2533 875.06 71.672C874.121 68.9733 872.948 66.568 871.54 64.456C870.132 62.344 868.548 60.3493 866.788 58.472C865.028 56.5947 863.444 54.6 862.036 52.488C860.628 50.2587 859.396 47.7947 858.34 45.096C857.401 42.28 856.932 38.8773 856.932 34.888V19.224C856.932 12.184 858.164 7.25599 860.628 4.43999C863.209 1.50666 867.316 0.0399933 872.948 0.0399933C878.58 0.0399933 882.628 1.50666 885.092 4.43999C887.673 7.25599 888.964 12.184 888.964 19.224V29.784H876.644V19.224C876.644 16.5253 876.468 14.7067 876.116 13.768C875.764 12.8293 874.708 12.36 872.948 12.36C871.188 12.36 870.132 12.8293 869.78 13.768C869.428 14.7067 869.252 16.5253 869.252 19.224V35.944C869.252 39.6987 870.249 42.9253 872.244 45.624C874.356 48.2053 876.644 51.0213 879.108 54.072C881.572 57.1227 883.801 60.8187 885.796 65.16C887.908 69.5013 888.964 75.192 888.964 82.232V105.64C888.964 112.68 887.673 117.667 885.092 120.6C882.628 123.533 878.58 125 872.948 125C867.316 125 863.209 123.592 860.628 120.776C858.164 117.843 856.932 112.856 856.932 105.816V88.04H869.252V105.816ZM909.054 1.79999C914.686 1.79999 918.969 3.26666 921.902 6.2C924.835 9.016 926.302 13.944 926.302 20.984V58.296C926.302 65.336 924.777 70.3227 921.726 73.256C918.793 76.072 914.51 77.48 908.878 77.48H906.59V125H894.27V1.79999H909.054ZM906.59 65.16H908.878C910.638 65.16 911.929 64.6907 912.75 63.752C913.571 62.8133 913.982 60.9947 913.982 58.296V20.984C913.982 18.2853 913.571 16.4667 912.75 15.528C912.046 14.5893 910.814 14.12 909.054 14.12H906.59V65.16ZM965.318 107.576C965.318 114.616 964.027 119.603 961.446 122.536C958.982 125.352 954.934 126.76 949.302 126.76C943.67 126.76 939.563 125.293 936.982 122.36C934.518 119.427 933.286 114.44 933.286 107.4V19.224C933.286 12.184 934.518 7.25599 936.982 4.43999C939.563 1.50666 943.67 0.0399933 949.302 0.0399933C954.934 0.0399933 958.982 1.50666 961.446 4.43999C964.027 7.25599 965.318 12.184 965.318 19.224V107.576ZM952.998 19.224C952.998 16.5253 952.822 14.7067 952.47 13.768C952.118 12.8293 951.062 12.36 949.302 12.36C947.542 12.36 946.486 12.8293 946.134 13.768C945.782 14.7067 945.606 16.5253 945.606 19.224V107.576C945.606 110.275 945.782 112.093 946.134 113.032C946.486 113.971 947.542 114.44 949.302 114.44C951.062 114.44 952.118 113.971 952.47 113.032C952.822 112.093 952.998 110.275 952.998 107.576V19.224ZM1009.09 125.88C1003.22 126.701 998.877 125.704 996.061 122.888C993.363 120.072 992.013 114.792 992.013 107.048V70.616C992.013 69.6773 991.779 68.856 991.309 68.152C990.84 67.3307 990.077 66.92 989.021 66.92H984.621V125H972.301V1.79999H987.085C992.717 1.79999 997 3.26666 999.933 6.2C1002.87 9.016 1004.33 13.944 1004.33 20.984V49.848C1004.33 55.5973 1002.75 59.176 999.581 60.584V60.936C1001.22 61.64 1002.4 63.1067 1003.1 65.336C1003.92 67.5653 1004.33 70.088 1004.33 72.904V106.696C1004.33 109.395 1004.51 111.213 1004.86 112.152C1005.21 113.091 1006.27 113.56 1008.03 113.56H1009.09V125.88ZM992.013 48.968V20.984C992.013 18.2853 991.603 16.4667 990.781 15.528C990.077 14.5893 988.845 14.12 987.085 14.12H984.621V54.6H987.085C988.611 54.6 989.784 54.248 990.605 53.544C991.544 52.84 992.013 51.3147 992.013 48.968ZM1042.79 1.79999V14.12H1032.94V125H1020.62V14.12H1010.76V1.79999H1042.79ZM1046.34 125L1052.67 1.79999H1071.86L1078.37 125H1066.23L1065.35 98.6H1059.36L1058.48 125H1046.34ZM1059.71 88.04H1064.99L1062.53 14.12H1062.18L1059.71 88.04ZM1113.95 1.79999V14.12H1104.09V125H1091.77V14.12H1081.92V1.79999H1113.95ZM1119.25 125V1.79999H1131.57V125H1119.25ZM1170.71 107.576C1170.71 114.616 1169.42 119.603 1166.84 122.536C1164.37 125.352 1160.32 126.76 1154.69 126.76C1149.06 126.76 1144.95 125.293 1142.37 122.36C1139.91 119.427 1138.68 114.44 1138.68 107.4V19.224C1138.68 12.184 1139.91 7.25599 1142.37 4.43999C1144.95 1.50666 1149.06 0.0399933 1154.69 0.0399933C1160.32 0.0399933 1164.37 1.50666 1166.84 4.43999C1169.42 7.25599 1170.71 12.184 1170.71 19.224V107.576ZM1158.39 19.224C1158.39 16.5253 1158.21 14.7067 1157.86 13.768C1157.51 12.8293 1156.45 12.36 1154.69 12.36C1152.93 12.36 1151.88 12.8293 1151.52 13.768C1151.17 14.7067 1151 16.5253 1151 19.224V107.576C1151 110.275 1151.17 112.093 1151.52 113.032C1151.88 113.971 1152.93 114.44 1154.69 114.44C1156.45 114.44 1157.51 113.971 1157.86 113.032C1158.21 112.093 1158.39 110.275 1158.39 107.576V19.224ZM1213.6 125H1199.52L1190.36 47.56H1189.84V125H1177.69V1.79999H1191.77L1201.1 75.72H1201.45V1.79999H1213.6V125Z" fill="#2965FF"/>
</svg>
