<svg width="11" height="8" viewBox="0 0 11 8" fill="none" xmlns="http://www.w3.org/2000/svg">
<path d="M3.55 0.64C3.312 0.584 3.13 0.57 2.92 0.57C1.968 0.57 1.254 1.046 0.988 1.774L0.918 0.724H0.00800006V7.5H0.974V3.636C0.974 2.348 1.772 1.508 3.018 1.508H3.55V0.64ZM9.59417 0.724V4.322C9.59417 5.932 8.82417 6.8 7.52217 6.8C6.44417 6.8 5.73017 6.226 5.73017 4.616V0.71H4.75017V4.924C4.75017 6.576 5.61817 7.668 7.21417 7.668C8.27817 7.668 9.21617 7.136 9.59417 6.352L9.72017 7.5H10.5602V0.724H9.59417Z" fill="#B6B6B6"/>
</svg>
